# File created by Blade
# Date/Time:  Wed Jan 21 14:55:15 2015
# Frame Rate: 120.000 fps
#------------------------------------------------------
:FULLY-SPECIFIED
:DEGREES
730
root 19.389450 17.442817 -19.664576 -97.008031 80.808269 -122.508105
Spine 23.923622 -5.275452 8.784197
Head -3.848767 -2.041597 -2.778226
LeftShoulder -17.318615 -40.675076 23.800545
LeftArm -27.840818 -1.767472 -13.149643
LeftForeArm -5.615085 -0.000000 2.127571
LeftHand -12.579620 -0.000000 4.605803
LeftHandThumb1 -26.253704 0.000000 33.147579
RightShoulder -10.148817 2.860563 -17.690362
RightArm -17.166983 42.271869 18.934270
RightForeArm -30.531225 -0.000000 11.301044
RightHand -14.868069 0.000000 -4.800012
RightHandThumb1 -24.326973 -0.000000 -32.862282
LeftUpLeg 2.483532 13.352859 6.926622
LeftLeg 74.190777 -0.000000 -0.000000
LeftFoot -19.476124 14.374352 -13.308308
LeftToeBase -76.374711 -0.000000 0.000000
RightUpLeg -113.010590 16.135918 8.901571
RightLeg 109.888470 -0.000000 -0.000000
RightFoot -40.213828 -26.223319 13.858040
RightToeBase 22.355882 -0.000000 -0.000000
731
root 19.370684 17.447416 -19.659376 -97.247595 80.845833 -122.556671
Spine 23.528799 -5.268789 8.772787
Head -3.898327 -1.999522 -2.821967
LeftShoulder -17.320427 -40.642933 23.785374
LeftArm -27.801092 -1.879997 -13.054201
LeftForeArm -5.385882 -0.000000 2.190566
LeftHand -12.563464 -0.000000 4.631168
LeftHandThumb1 -26.253704 0.000000 33.147579
RightShoulder -10.192053 2.783141 -17.640910
RightArm -17.042669 42.400003 18.885312
RightForeArm -30.610592 -0.000000 11.268672
RightHand -14.819390 -0.000000 -4.799019
RightHandThumb1 -24.326973 -0.000000 -32.862282
LeftUpLeg 2.612161 13.345071 6.934461
LeftLeg 74.256529 -0.000000 -0.000000
LeftFoot -19.485025 14.414971 -13.325716
LeftToeBase -76.453038 -0.000000 0.000000
RightUpLeg -112.833923 16.086210 8.911900
RightLeg 109.836678 -0.000000 -0.000000
RightFoot -40.169185 -26.200880 13.864422
RightToeBase 22.376425 -0.000000 -0.000000
732
root 19.349512 17.452969 -19.651460 -97.392296 80.864636 -122.514969
Spine 23.122609 -5.278931 8.776424
Head -3.908620 -1.984885 -2.862162
LeftShoulder -17.336992 -40.561562 23.769867
LeftArm -27.774546 -1.926634 -13.012480
LeftForeArm -5.218466 -0.000000 2.286595
LeftHand -12.589476 0.000000 4.648294
LeftHandThumb1 -26.253704 0.000000 33.147579
RightShoulder -10.188322 2.695891 -17.623431
RightArm -16.936634 42.575749 18.852246
RightForeArm -30.788342 -0.000000 11.216890
RightHand -14.803142 -0.000000 -4.776420
RightHandThumb1 -24.326973 -0.000000 -32.862282
LeftUpLeg 2.726143 13.349301 6.964077
LeftLeg 74.342489 -0.000000 -0.000000
LeftFoot -19.511234 14.455686 -13.352049
LeftToeBase -76.440818 -0.000000 0.000000
RightUpLeg -112.640697 16.056523 8.960025
RightLeg 109.759317 -0.000000 -0.000000
RightFoot -40.148474 -26.198814 13.876123
RightToeBase 22.503909 -0.000000 -0.000000
733
root 19.332551 17.459244 -19.640758 -97.504303 80.844450 -122.428797
Spine 22.755283 -5.298125 8.829992
Head -4.023836 -1.967282 -2.896587
LeftShoulder -17.474322 -40.476004 23.734289
LeftArm -27.580314 -1.920035 -12.991698
LeftForeArm -5.167385 -0.000000 2.312964
LeftHand -12.525291 -0.000000 4.657559
LeftHandThumb1 -26.253704 0.000000 33.147579
RightShoulder -10.206259 2.687840 -17.578096
RightArm -16.824503 42.522867 18.804891
RightForeArm -30.740752 -0.000000 11.231889
RightHand -14.821183 -0.000000 -4.788024
RightHandThumb1 -24.326973 -0.000000 -32.862282
LeftUpLeg 2.868031 13.368103 7.056933
LeftLeg 74.415359 -0.000000 -0.000000
LeftFoot -19.530292 14.515109 -13.341418
LeftToeBase -76.215611 -0.000000 0.000000
RightUpLeg -112.427221 16.041759 9.052490
RightLeg 109.697749 -0.000000 -0.000000
RightFoot -40.119801 -26.134771 13.990339
RightToeBase 22.409183 -0.000000 -0.000000
734
root 19.309455 17.461544 -19.626526 -97.359262 80.898951 -122.178395
Spine 22.231559 -5.223220 8.774209
Head -3.992998 -1.936099 -2.877984
LeftShoulder -17.531442 -40.412416 23.774379
LeftArm -27.466171 -1.922922 -12.966204
LeftForeArm -5.101634 -0.000000 2.332185
LeftHand -12.526696 -0.000000 4.709535
LeftHandThumb1 -26.253704 0.000000 33.147579
RightShoulder -10.233682 2.634171 -17.498987
RightArm -16.713296 42.552868 18.756028
RightForeArm -30.837785 0.000000 11.223554
RightHand -14.855573 -0.000000 -4.764009
RightHandThumb1 -24.326973 -0.000000 -32.862282
LeftUpLeg 2.908520 13.430974 7.057805
LeftLeg 74.510134 -0.000000 -0.000000
LeftFoot -19.545150 14.548163 -13.344354
LeftToeBase -75.845467 -0.000000 0.000000
RightUpLeg -112.353663 16.078684 9.004308
RightLeg 109.618855 -0.000000 -0.000000
RightFoot -40.064550 -26.119823 14.094693
RightToeBase 22.958779 -0.000000 -0.000000
735
root 19.289616 17.466685 -19.615343 -97.419128 80.918152 -122.058904
Spine 21.791269 -5.179500 8.788340
Head -3.961699 -1.927727 -2.932604
LeftShoulder -17.505431 -40.504613 23.717860
LeftArm -27.446583 -1.570730 -12.977097
LeftForeArm -5.233454 0.000000 2.408185
LeftHand -12.405541 0.000000 4.795907
LeftHandThumb1 -26.253704 0.000000 33.147579
RightShoulder -10.241183 2.592451 -17.487002
RightArm -16.700964 42.714119 18.666374
RightForeArm -31.026900 -0.000000 11.235224
RightHand -14.856097 -0.000000 -4.659746
RightHandThumb1 -24.326973 -0.000000 -32.862282
LeftUpLeg 3.022376 13.456679 7.098930
LeftLeg 74.588434 -0.000000 -0.000000
LeftFoot -19.568000 14.642411 -13.352046
LeftToeBase -75.935150 -0.000000 0.000000
RightUpLeg -112.185368 16.058083 9.047663
RightLeg 109.560364 -0.000000 -0.000000
RightFoot -40.010776 -26.037540 14.169446
RightToeBase 23.050686 -0.000000 -0.000000
